<?xml version="1.0" encoding="utf-8"?>
<!-- Generator: Adobe Illustrator 21.1.0, SVG Export Plug-In . SVG Version: 6.00 Build 0)  -->
<svg version="1.1" id="_x2014_ÎÓÈ_x5F_1" xmlns="http://www.w3.org/2000/svg" xmlns:xlink="http://www.w3.org/1999/xlink"
	 x="0px" y="0px" viewBox="0 0 512.8 512.8" style="enable-background:new 0 0 512.8 512.8;" xml:space="preserve">
<style type="text/css">
	.st0{fill:#FFFFFF;}
</style>
<path class="st0" d="M425.1,129.8h-57.8l-11.7-24.4C346.3,86,326.6,73.6,305,73.6h-97.1c-21.6,0-41.3,12.4-50.7,31.8l-11.7,24.4
	H87.6c-30.9,0-56.2,25.3-56.2,56.2V383c0,30.9,25.3,56.2,56.2,56.2h337.5c30.9,0,56.2-25.3,56.2-56.2V186.1
	C481.4,155.1,456.1,129.8,425.1,129.8z M256.4,397c-62.1,0-112.5-50.4-112.5-112.5c0-62.1,50.4-112.5,112.5-112.5
	s112.5,50.4,112.5,112.5C368.9,346.7,318.5,397,256.4,397z"/>
</svg>
