<?xml version="1.0" encoding="utf-8"?>
<!-- Generator: Adobe Illustrator 21.1.0, SVG Export Plug-In . SVG Version: 6.00 Build 0)  -->
<svg version="1.1" id="_x2014_ÎÓÈ_x5F_1" xmlns="http://www.w3.org/2000/svg" xmlns:xlink="http://www.w3.org/1999/xlink"
	 x="0px" y="0px" viewBox="0 0 235.7 332.7" style="enable-background:new 0 0 235.7 332.7;" xml:space="preserve">
<style type="text/css">
	.st0{fill:#FFFFFF;}
</style>
<g id="XMLID_1_">
	<path id="XMLID_3_" class="st0" d="M117.3,176.1c33.7,0,61.1-27.4,61.1-61.1c0-33.7-27.4-61.1-61.1-61.1
		c-33.7,0-61.1,27.4-61.1,61.1C56.2,148.7,83.6,176.1,117.3,176.1z"/>
	<path id="XMLID_12_" class="st0" d="M45.8,183.3c3.3,1.6,6.1,4.2,8,7.5l4.5,7.7c3.4,5.8,9.6,9.4,16.3,9.4h16.7
		c2.9,0,5.7,0.7,8.3,1.9l15,7.4c6,3,13.2,2.5,18.8-1.2l7.4-5c3.1-2.1,6.7-3.2,10.4-3.2h8.9c6.7,0,12.9-3.6,16.3-9.4l8.3-14.4
		c1.4-2.5,3.4-4.6,5.9-6.2l13.9-9.3c5.6-3.7,8.8-10.2,8.3-16.9l-0.6-8.9c-0.2-3.7,0.6-7.4,2.5-10.6l4.5-7.7c3.4-5.8,3.4-13,0-18.8
		l-8.3-14.4c-1.4-2.5-2.3-5.3-2.5-8.2l-1.1-16.6c-0.4-6.7-4.4-12.7-10.4-15.6l-8-4c-3.3-1.6-6.1-4.2-8-7.5l-4.5-7.7
		c-3.4-5.8-9.6-9.4-16.3-9.4h-16.7c-2.9,0-5.7-0.7-8.3-1.9l-15-7.4c-6-3-13.2-2.5-18.8,1.2l-7.4,5c-3.1,2.1-6.7,3.2-10.4,3.2h-8.9
		c-6.7,0-12.9,3.6-16.3,9.4L49.9,46c-1.4,2.5-3.4,4.6-5.9,6.2l-13.9,9.3c-5.6,3.7-8.8,10.2-8.3,16.9l0.6,8.9
		c0.2,3.7-0.6,7.4-2.5,10.6l-4.5,7.7c-3.4,5.8-3.4,13,0,18.8l8.3,14.4c1.4,2.5,2.3,5.3,2.5,8.2l1.1,16.6c0.4,6.7,4.4,12.7,10.4,15.6
		L45.8,183.3z M49.9,86.5c3.7-8.7,9-16.5,15.7-23.2c6.7-6.7,14.5-12,23.2-15.7c9-3.8,18.6-5.8,28.5-5.8c9.9,0,19.4,1.9,28.5,5.8
		c8.7,3.7,16.5,9,23.2,15.7c6.7,6.7,12,14.5,15.7,23.2c3.8,9,5.8,18.6,5.8,28.5c0,9.9-1.9,19.4-5.8,28.5c-3.7,8.7-9,16.5-15.7,23.2
		c-6.7,6.7-14.5,12-23.2,15.7c-9,3.8-18.6,5.8-28.5,5.8c-9.9,0-19.4-1.9-28.5-5.8c-8.7-3.7-16.5-9-23.2-15.7
		c-6.7-6.7-12-14.5-15.7-23.2c-3.8-9-5.8-18.6-5.8-28.5C44.1,105.1,46.1,95.6,49.9,86.5z"/>
	<path id="XMLID_13_" class="st0" d="M122.8,225.2c-3.8,0-7.6-0.9-11-2.6l-15-7.4c-1.8-0.9-3.7-1.3-5.7-1.3H74.5
		c-4.3,0-8.6-1.1-12.4-3.3c-2.2-1.3-4.2-2.8-5.9-4.7L34,280.6c-0.9,3.1,3.2,6.2,7,5.3l27-5.7c2-0.4,4.3,0.2,5.8,1.6l20,19
		c2.8,2.7,7.9,2.2,8.8-0.9l22.3-74.9C124.2,225.1,123.5,225.2,122.8,225.2z"/>
	<path id="XMLID_14_" class="st0" d="M178.2,206c-1.7,1.8-3.6,3.3-5.7,4.5c-3.8,2.2-8,3.3-12.4,3.3h-8.9c-2.5,0-5,0.7-7.1,2.2
		l-7.4,5c-1,0.6-2,1.2-3,1.7l-9.8,33l34.4,65.1c1.5,2.8,6.6,2.3,8.8-1l15.7-22.7c1.2-1.7,3.3-2.8,5.3-2.8h27.6
		c3.9,0,7.3-3.9,5.8-6.7L178.2,206z"/>
</g>
</svg>
