<?xml version="1.0" encoding="utf-8"?>
<!-- Generator: Adobe Illustrator 21.1.0, SVG Export Plug-In . SVG Version: 6.00 Build 0)  -->
<svg version="1.1" id="_x2014_ÎÓÈ_x5F_1" xmlns="http://www.w3.org/2000/svg" xmlns:xlink="http://www.w3.org/1999/xlink"
	 x="0px" y="0px" viewBox="0 0 255.906 333.071" enable-background="new 0 0 255.906 333.071" xml:space="preserve">
<g>
	<g>
		<path fill="#FFFFFF" d="M77.894,178.171l25.418,2.32c16.315,1.489,32.732,1.495,49.049,0.018l25.824-2.338
			c10.479,0,18.72-8.956,17.849-19.399L185.358,30.691c-0.774-9.283-8.534-16.423-17.849-16.423l-13.29-3.843
			c-17.094-4.943-35.247-4.879-52.305,0.183l-12.334,3.66c-9.261,0-16.995,7.061-17.837,16.284L60.057,158.633
			C59.1,169.124,67.359,178.171,77.894,178.171z"/>
	</g>
	<g>
		<path fill="#FFFFFF" d="M38.742,131.901H20.796c-6.112,0-11.066,4.955-11.066,11.066c0,6.112,4.955,11.067,11.066,11.067h17.946
			c6.112,0,7.268-4.955,7.268-11.067C46.01,136.856,44.854,131.901,38.742,131.901z"/>
	</g>
	<g>
		<path fill="#FFFFFF" d="M235.282,131.901h-17.946c-6.112,0-8.028,4.955-8.028,11.066c0,6.112,1.916,11.067,8.028,11.067h17.946
			c6.112,0,11.066-4.955,11.066-11.067C246.349,136.856,241.394,131.901,235.282,131.901z"/>
	</g>
	<g>
		<path fill="#FFFFFF" d="M40.857,199.231v-35.622c0-3.153-2.553-5.698-5.698-5.698c-3.145,0-5.698,2.545-5.698,5.698v35.622
			c0,8.273,3.571,16.144,9.8,21.598c0.957,0.836,1.96,1.603,3.008,2.294c-0.79-2.363-1.215-4.893-1.215-7.521
			c0-3.046,0.577-5.964,1.626-8.645C41.495,204.587,40.857,201.943,40.857,199.231z"/>
	</g>
	<g>
		<path fill="#FFFFFF" d="M220.92,157.911c-3.145,0-5.698,2.545-5.698,5.698v35.622c0,2.712-0.638,5.356-1.823,7.726
			c1.048,2.682,1.626,5.599,1.626,8.645c0,2.628-0.425,5.158-1.215,7.521c1.048-0.691,2.051-1.459,3.008-2.294
			c6.229-5.455,9.8-13.325,9.8-21.598v-35.622C226.618,160.456,224.065,157.911,220.92,157.911z"/>
	</g>
	<g>
		<path fill="#FFFFFF" d="M141.129,241.432H114.95v0.304c4.475,0.16,8.972,0.235,13.469,0.235c4.247,0,8.486-0.068,12.71-0.205
			V241.432z"/>
	</g>
	<g>
		<path fill="#FFFFFF" d="M190.108,308.827c1.665-1.028,3.619-1.632,5.716-1.632c1.801,0,3.498,0.446,4.997,1.221
			c-2.245-7.339-8.374-13.114-16.217-14.637l-43.376-12.342v0.047h-3.799h-18.772h-3.799v-0.043l-43.384,12.339
			c-7.844,1.523-13.978,7.298-16.222,14.639c1.501-0.777,3.199-1.224,5.002-1.224c2.097,0,4.052,0.605,5.718,1.633
			c1.59-2.628,4.234-4.577,7.416-5.194l41.61-8.078c4.321-0.839,8.336,2.471,8.336,6.873v5.848c1.428-0.686,3.02-1.081,4.707-1.081
			c1.686,0,3.277,0.395,4.704,1.08v-5.847c0-4.402,4.014-7.712,8.336-6.873l41.61,8.078
			C185.872,304.251,188.518,306.199,190.108,308.827z"/>
	</g>
	<g>
		<path fill="#FFFFFF" d="M189.694,194.065l-49.358,2.433c-8.193,0.404-16.4,0.404-24.593,0l-49.359-2.433
			c-11.893,0-21.535,9.641-21.535,21.535v0c0,11.893,9.641,21.535,21.535,21.535l42.794,2.09
			c12.937,0.632,25.898,0.626,38.834-0.017l41.682-2.073c11.893,0,21.535-9.642,21.535-21.535v0
			C211.229,203.706,201.587,194.065,189.694,194.065z"/>
	</g>
	<g>
		<path fill="#FFFFFF" d="M106.836,193.776l9.018,0.448c8.083,0.395,16.28,0.395,24.371,0l9.018-0.448v-9.208
			c-7.079,0.549-14.227,0.843-21.307,0.843c-7.01,0-14.087-0.288-21.099-0.826V193.776z"/>
	</g>
	<g>
		<polygon fill="#FFFFFF" points="114.95,265.408 118.657,265.408 118.657,279.204 137.429,279.204 137.429,265.408 
			141.129,265.408 141.129,242.192 114.95,242.192 		"/>
	</g>
	<g>
		<circle fill="#FFFFFF" cx="60.255" cy="318.119" r="8.645"/>
	</g>
	<g>
		<circle fill="#FFFFFF" cx="195.824" cy="318.119" r="8.645"/>
	</g>
	<g>
		<circle fill="#FFFFFF" cx="128.04" cy="318.119" r="8.645"/>
	</g>
</g>
</svg>
